<svg width="52" height="20" viewBox="0 0 52 20" fill="none" xmlns="http://www.w3.org/2000/svg">
<path d="M0.5 10C0.5 4.47715 4.97715 0 10.5 0H41.5C47.0228 0 51.5 4.47715 51.5 10C51.5 15.5228 47.0228 20 41.5 20H10.5C4.97715 20 0.5 15.5228 0.5 10Z" fill="#A43E9E"/>
<path d="M14.47 9.24C14.47 9.64667 14.3767 10.02 14.19 10.36C14.0033 10.6933 13.7167 10.9633 13.33 11.17C12.9433 11.3767 12.4633 11.48 11.89 11.48H10.83V14H9.12V6.98H11.89C12.45 6.98 12.9233 7.07667 13.31 7.27C13.6967 7.46333 13.9867 7.73 14.18 8.07C14.3733 8.41 14.47 8.8 14.47 9.24ZM11.76 10.12C12.0867 10.12 12.33 10.0433 12.49 9.89C12.65 9.73667 12.73 9.52 12.73 9.24C12.73 8.96 12.65 8.74333 12.49 8.59C12.33 8.43667 12.0867 8.36 11.76 8.36H10.83V10.12H11.76ZM17.9002 14.08C17.3536 14.08 16.8602 13.9633 16.4202 13.73C15.9869 13.4967 15.6436 13.1633 15.3902 12.73C15.1436 12.2967 15.0202 11.79 15.0202 11.21C15.0202 10.6367 15.1469 10.1333 15.4002 9.7C15.6536 9.26 16.0002 8.92333 16.4402 8.69C16.8802 8.45667 17.3736 8.34 17.9202 8.34C18.4669 8.34 18.9602 8.45667 19.4002 8.69C19.8402 8.92333 20.1869 9.26 20.4402 9.7C20.6936 10.1333 20.8202 10.6367 20.8202 11.21C20.8202 11.7833 20.6902 12.29 20.4302 12.73C20.1769 13.1633 19.8269 13.4967 19.3802 13.73C18.9402 13.9633 18.4469 14.08 17.9002 14.08ZM17.9002 12.6C18.2269 12.6 18.5036 12.48 18.7302 12.24C18.9636 12 19.0802 11.6567 19.0802 11.21C19.0802 10.7633 18.9669 10.42 18.7402 10.18C18.5202 9.94 18.2469 9.82 17.9202 9.82C17.5869 9.82 17.3102 9.94 17.0902 10.18C16.8702 10.4133 16.7602 10.7567 16.7602 11.21C16.7602 11.6567 16.8669 12 17.0802 12.24C17.3002 12.48 17.5736 12.6 17.9002 12.6ZM22.5874 7.84C22.2874 7.84 22.0408 7.75333 21.8474 7.58C21.6608 7.4 21.5674 7.18 21.5674 6.92C21.5674 6.65333 21.6608 6.43333 21.8474 6.26C22.0408 6.08 22.2874 5.99 22.5874 5.99C22.8808 5.99 23.1208 6.08 23.3074 6.26C23.5008 6.43333 23.5974 6.65333 23.5974 6.92C23.5974 7.18 23.5008 7.4 23.3074 7.58C23.1208 7.75333 22.8808 7.84 22.5874 7.84ZM23.4374 8.42V14H21.7274V8.42H23.4374ZM26.9466 14.08C26.46 14.08 26.0266 13.9967 25.6466 13.83C25.2666 13.6633 24.9666 13.4367 24.7466 13.15C24.5266 12.8567 24.4033 12.53 24.3766 12.17H26.0666C26.0866 12.3633 26.1766 12.52 26.3366 12.64C26.4966 12.76 26.6933 12.82 26.9266 12.82C27.14 12.82 27.3033 12.78 27.4166 12.7C27.5366 12.6133 27.5966 12.5033 27.5966 12.37C27.5966 12.21 27.5133 12.0933 27.3466 12.02C27.18 11.94 26.91 11.8533 26.5366 11.76C26.1366 11.6667 25.8033 11.57 25.5366 11.47C25.27 11.3633 25.04 11.2 24.8466 10.98C24.6533 10.7533 24.5566 10.45 24.5566 10.07C24.5566 9.75 24.6433 9.46 24.8166 9.2C24.9966 8.93333 25.2566 8.72333 25.5966 8.57C25.9433 8.41667 26.3533 8.34 26.8266 8.34C27.5266 8.34 28.0766 8.51333 28.4766 8.86C28.8833 9.20667 29.1166 9.66667 29.1766 10.24H27.5966C27.57 10.0467 27.4833 9.89333 27.3366 9.78C27.1966 9.66667 27.01 9.61 26.7766 9.61C26.5766 9.61 26.4233 9.65 26.3166 9.73C26.21 9.80333 26.1566 9.90667 26.1566 10.04C26.1566 10.2 26.24 10.32 26.4066 10.4C26.58 10.48 26.8466 10.56 27.2066 10.64C27.62 10.7467 27.9566 10.8533 28.2166 10.96C28.4766 11.06 28.7033 11.2267 28.8966 11.46C29.0966 11.6867 29.2 11.9933 29.2066 12.38C29.2066 12.7067 29.1133 13 28.9266 13.26C28.7466 13.5133 28.4833 13.7133 28.1366 13.86C27.7966 14.0067 27.4 14.08 26.9466 14.08ZM32.7928 14.08C32.2461 14.08 31.7528 13.9633 31.3128 13.73C30.8795 13.4967 30.5361 13.1633 30.2828 12.73C30.0361 12.2967 29.9128 11.79 29.9128 11.21C29.9128 10.6367 30.0395 10.1333 30.2928 9.7C30.5461 9.26 30.8928 8.92333 31.3328 8.69C31.7728 8.45667 32.2661 8.34 32.8128 8.34C33.3595 8.34 33.8528 8.45667 34.2928 8.69C34.7328 8.92333 35.0795 9.26 35.3328 9.7C35.5861 10.1333 35.7128 10.6367 35.7128 11.21C35.7128 11.7833 35.5828 12.29 35.3228 12.73C35.0695 13.1633 34.7195 13.4967 34.2728 13.73C33.8328 13.9633 33.3395 14.08 32.7928 14.08ZM32.7928 12.6C33.1195 12.6 33.3961 12.48 33.6228 12.24C33.8561 12 33.9728 11.6567 33.9728 11.21C33.9728 10.7633 33.8595 10.42 33.6328 10.18C33.4128 9.94 33.1395 9.82 32.8128 9.82C32.4795 9.82 32.2028 9.94 31.9828 10.18C31.7628 10.4133 31.6528 10.7567 31.6528 11.21C31.6528 11.6567 31.7595 12 31.9728 12.24C32.1928 12.48 32.4661 12.6 32.7928 12.6ZM40.02 8.36C40.6733 8.36 41.1933 8.57333 41.58 9C41.9733 9.42 42.17 10 42.17 10.74V14H40.47V10.97C40.47 10.5967 40.3733 10.3067 40.18 10.1C39.9867 9.89333 39.7267 9.79 39.4 9.79C39.0733 9.79 38.8133 9.89333 38.62 10.1C38.4267 10.3067 38.33 10.5967 38.33 10.97V14H36.62V8.42H38.33V9.16C38.5033 8.91333 38.7367 8.72 39.03 8.58C39.3233 8.43333 39.6533 8.36 40.02 8.36Z" fill="white"/>
</svg>
