<svg width="36" height="20" viewBox="0 0 36 20" fill="none" xmlns="http://www.w3.org/2000/svg">
<path d="M0.5 10C0.5 4.47715 4.97715 0 10.5 0H25.5C31.0228 0 35.5 4.47715 35.5 10C35.5 15.5228 31.0228 20 25.5 20H10.5C4.97715 20 0.5 15.5228 0.5 10Z" fill="#F57D31"/>
<path d="M13.69 6.98V8.35H10.83V9.83H12.97V11.16H10.83V14H9.12V6.98H13.69ZM15.4488 7.84C15.1488 7.84 14.9021 7.75333 14.7088 7.58C14.5221 7.4 14.4288 7.18 14.4288 6.92C14.4288 6.65333 14.5221 6.43333 14.7088 6.26C14.9021 6.08 15.1488 5.99 15.4488 5.99C15.7421 5.99 15.9821 6.08 16.1688 6.26C16.3621 6.43333 16.4588 6.65333 16.4588 6.92C16.4588 7.18 16.3621 7.4 16.1688 7.58C15.9821 7.75333 15.7421 7.84 15.4488 7.84ZM16.2988 8.42V14H14.5888V8.42H16.2988ZM19.248 9.35C19.448 9.04333 19.698 8.80333 19.998 8.63C20.298 8.45 20.6313 8.36 20.998 8.36V10.17H20.528C20.1013 10.17 19.7813 10.2633 19.568 10.45C19.3546 10.63 19.248 10.95 19.248 11.41V14H17.538V8.42H19.248V9.35ZM27.0753 11.12C27.0753 11.28 27.0653 11.4467 27.0453 11.62H23.1753C23.202 11.9667 23.312 12.2333 23.5053 12.42C23.7053 12.6 23.9486 12.69 24.2353 12.69C24.662 12.69 24.9586 12.51 25.1253 12.15H26.9453C26.852 12.5167 26.682 12.8467 26.4353 13.14C26.1953 13.4333 25.892 13.6633 25.5253 13.83C25.1586 13.9967 24.7486 14.08 24.2953 14.08C23.7486 14.08 23.262 13.9633 22.8353 13.73C22.4086 13.4967 22.0753 13.1633 21.8353 12.73C21.5953 12.2967 21.4753 11.79 21.4753 11.21C21.4753 10.63 21.592 10.1233 21.8253 9.69C22.0653 9.25667 22.3986 8.92333 22.8253 8.69C23.252 8.45667 23.742 8.34 24.2953 8.34C24.8353 8.34 25.3153 8.45333 25.7353 8.68C26.1553 8.90667 26.482 9.23 26.7153 9.65C26.9553 10.07 27.0753 10.56 27.0753 11.12ZM25.3253 10.67C25.3253 10.3767 25.2253 10.1433 25.0253 9.97C24.8253 9.79667 24.5753 9.71 24.2753 9.71C23.9886 9.71 23.7453 9.79333 23.5453 9.96C23.352 10.1267 23.232 10.3633 23.1853 10.67H25.3253Z" fill="white"/>
</svg>
