<svg width="47" height="20" viewBox="0 0 47 20" fill="none" xmlns="http://www.w3.org/2000/svg">
<path d="M0.5 10C0.5 4.47715 4.97715 0 10.5 0H36.5C42.0228 0 46.5 4.47715 46.5 10C46.5 15.5228 42.0228 20 36.5 20H10.5C4.97715 20 0.5 15.5228 0.5 10Z" fill="#74CB48"/>
<path d="M13.78 9.2C13.6533 8.96667 13.47 8.79 13.23 8.67C12.9967 8.54333 12.72 8.48 12.4 8.48C11.8467 8.48 11.4033 8.66333 11.07 9.03C10.7367 9.39 10.57 9.87333 10.57 10.48C10.57 11.1267 10.7433 11.6333 11.09 12C11.4433 12.36 11.9267 12.54 12.54 12.54C12.96 12.54 13.3133 12.4333 13.6 12.22C13.8933 12.0067 14.1067 11.7 14.24 11.3H12.07V10.04H15.79V11.63C15.6633 12.0567 15.4467 12.4533 15.14 12.82C14.84 13.1867 14.4567 13.4833 13.99 13.71C13.5233 13.9367 12.9967 14.05 12.41 14.05C11.7167 14.05 11.0967 13.9 10.55 13.6C10.01 13.2933 9.58667 12.87 9.28 12.33C8.98 11.79 8.83 11.1733 8.83 10.48C8.83 9.78667 8.98 9.17 9.28 8.63C9.58667 8.08333 10.01 7.66 10.55 7.36C11.09 7.05333 11.7067 6.9 12.4 6.9C13.24 6.9 13.9467 7.10333 14.52 7.51C15.1 7.91667 15.4833 8.48 15.67 9.2H13.78ZM18.4472 9.35C18.6472 9.04333 18.8972 8.80333 19.1972 8.63C19.4972 8.45 19.8305 8.36 20.1972 8.36V10.17H19.7272C19.3005 10.17 18.9805 10.2633 18.7672 10.45C18.5539 10.63 18.4472 10.95 18.4472 11.41V14H16.7372V8.42H18.4472V9.35ZM20.6745 11.2C20.6745 10.6267 20.7812 10.1233 20.9945 9.69C21.2145 9.25667 21.5112 8.92333 21.8845 8.69C22.2579 8.45667 22.6745 8.34 23.1345 8.34C23.5279 8.34 23.8712 8.42 24.1645 8.58C24.4645 8.74 24.6945 8.95 24.8545 9.21V8.42H26.5645V14H24.8545V13.21C24.6879 13.47 24.4545 13.68 24.1545 13.84C23.8612 14 23.5179 14.08 23.1245 14.08C22.6712 14.08 22.2579 13.9633 21.8845 13.73C21.5112 13.49 21.2145 13.1533 20.9945 12.72C20.7812 12.28 20.6745 11.7733 20.6745 11.2ZM24.8545 11.21C24.8545 10.7833 24.7345 10.4467 24.4945 10.2C24.2612 9.95333 23.9745 9.83 23.6345 9.83C23.2945 9.83 23.0045 9.95333 22.7645 10.2C22.5312 10.44 22.4145 10.7733 22.4145 11.2C22.4145 11.6267 22.5312 11.9667 22.7645 12.22C23.0045 12.4667 23.2945 12.59 23.6345 12.59C23.9745 12.59 24.2612 12.4667 24.4945 12.22C24.7345 11.9733 24.8545 11.6367 24.8545 11.21ZM30.0716 14.08C29.585 14.08 29.1516 13.9967 28.7716 13.83C28.3916 13.6633 28.0916 13.4367 27.8716 13.15C27.6516 12.8567 27.5283 12.53 27.5016 12.17H29.1916C29.2116 12.3633 29.3016 12.52 29.4616 12.64C29.6216 12.76 29.8183 12.82 30.0516 12.82C30.265 12.82 30.4283 12.78 30.5416 12.7C30.6616 12.6133 30.7216 12.5033 30.7216 12.37C30.7216 12.21 30.6383 12.0933 30.4716 12.02C30.305 11.94 30.035 11.8533 29.6616 11.76C29.2616 11.6667 28.9283 11.57 28.6616 11.47C28.395 11.3633 28.165 11.2 27.9716 10.98C27.7783 10.7533 27.6816 10.45 27.6816 10.07C27.6816 9.75 27.7683 9.46 27.9416 9.2C28.1216 8.93333 28.3816 8.72333 28.7216 8.57C29.0683 8.41667 29.4783 8.34 29.9516 8.34C30.6516 8.34 31.2016 8.51333 31.6016 8.86C32.0083 9.20667 32.2416 9.66667 32.3016 10.24H30.7216C30.695 10.0467 30.6083 9.89333 30.4616 9.78C30.3216 9.66667 30.135 9.61 29.9016 9.61C29.7016 9.61 29.5483 9.65 29.4416 9.73C29.335 9.80333 29.2816 9.90667 29.2816 10.04C29.2816 10.2 29.365 10.32 29.5316 10.4C29.705 10.48 29.9716 10.56 30.3316 10.64C30.745 10.7467 31.0816 10.8533 31.3416 10.96C31.6016 11.06 31.8283 11.2267 32.0216 11.46C32.2216 11.6867 32.325 11.9933 32.3316 12.38C32.3316 12.7067 32.2383 13 32.0516 13.26C31.8716 13.5133 31.6083 13.7133 31.2616 13.86C30.9216 14.0067 30.525 14.08 30.0716 14.08ZM35.6478 14.08C35.1611 14.08 34.7278 13.9967 34.3478 13.83C33.9678 13.6633 33.6678 13.4367 33.4478 13.15C33.2278 12.8567 33.1045 12.53 33.0778 12.17H34.7678C34.7878 12.3633 34.8778 12.52 35.0378 12.64C35.1978 12.76 35.3945 12.82 35.6278 12.82C35.8411 12.82 36.0045 12.78 36.1178 12.7C36.2378 12.6133 36.2978 12.5033 36.2978 12.37C36.2978 12.21 36.2145 12.0933 36.0478 12.02C35.8811 11.94 35.6111 11.8533 35.2378 11.76C34.8378 11.6667 34.5045 11.57 34.2378 11.47C33.9711 11.3633 33.7411 11.2 33.5478 10.98C33.3545 10.7533 33.2578 10.45 33.2578 10.07C33.2578 9.75 33.3445 9.46 33.5178 9.2C33.6978 8.93333 33.9578 8.72333 34.2978 8.57C34.6445 8.41667 35.0545 8.34 35.5278 8.34C36.2278 8.34 36.7778 8.51333 37.1778 8.86C37.5845 9.20667 37.8178 9.66667 37.8778 10.24H36.2978C36.2711 10.0467 36.1845 9.89333 36.0378 9.78C35.8978 9.66667 35.7111 9.61 35.4778 9.61C35.2778 9.61 35.1245 9.65 35.0178 9.73C34.9111 9.80333 34.8578 9.90667 34.8578 10.04C34.8578 10.2 34.9411 10.32 35.1078 10.4C35.2811 10.48 35.5478 10.56 35.9078 10.64C36.3211 10.7467 36.6578 10.8533 36.9178 10.96C37.1778 11.06 37.4045 11.2267 37.5978 11.46C37.7978 11.6867 37.9011 11.9933 37.9078 12.38C37.9078 12.7067 37.8145 13 37.6278 13.26C37.4478 13.5133 37.1845 13.7133 36.8378 13.86C36.4978 14.0067 36.1011 14.08 35.6478 14.08Z" fill="white"/>
</svg>
